<?xml version="1.0" encoding="UTF-8" standalone="no"?>
<svg width="41px" height="40px" viewBox="0 0 41 40" version="1.1" xmlns="http://www.w3.org/2000/svg" xmlns:xlink="http://www.w3.org/1999/xlink">
    <!-- Generator: Sketch 3.7.2 (28276) - http://www.bohemiancoding.com/sketch -->
    <title>audio</title>
    <desc>Created with Sketch.</desc>
    <defs></defs>
    <g id="Page-1" stroke="none" stroke-width="1" fill="none" fill-rule="evenodd">
        <g id="HOME" transform="translate(-627.000000, -535.000000)" fill="#FF9F00">
            <g id="ROMPRE-L'ISOLEMENT" transform="translate(320.000000, 480.000000)">
                <g id="BULLE-SANTÉ" transform="translate(219.000000, 30.000000)">
                    <path d="M128.599609,45 C128.599609,33.9550781 119.510293,25 108.299805,25 C97.0893168,25 88,33.9550781 88,45 C88,47.7953906 88.6219987,50.4394531 89.6775885,52.8564844 C88.6442809,54.1357813 88,55.7348437 88,57.5 C88,61.6430469 91.4072746,65 95.6124268,65 C96.5069662,65 97.3520249,64.8192969 98.1499023,64.5410156 L98.1499023,50.4589844 C97.3520249,50.1807031 96.5069662,50 95.6124268,50 C94.1677309,50 92.8308777,50.4199219 91.6798154,51.1084375 C90.951322,49.2041406 90.5374756,47.1533594 90.5374756,45 C90.5374756,35.3515625 98.5054661,27.5 108.299805,27.5 C118.092875,27.5 126.062134,35.3515625 126.062134,45 C126.062134,47.1508594 125.645829,49.2016406 124.919794,51.1084375 C123.77,50.4199219 122.431878,50 120.987183,50 C120.092643,50 119.247585,50.1807031 118.449707,50.4589844 L118.449707,64.5410156 C119.247664,64.819375 120.092643,65 120.987183,65 C125.192335,65 128.599609,61.6430469 128.599609,57.5 C128.599609,55.7348437 127.955328,54.1332812 126.919483,52.8539844 C127.975152,50.4370313 128.599609,47.7953906 128.599609,45 L128.599609,45 Z M95.6124268,62.5 C92.8135119,62.5 90.5374756,60.2563281 90.5374756,57.5 C90.5374756,54.7436719 92.8135119,52.5 95.6124268,52.5 L95.6124268,62.5 L95.6124268,62.5 Z M120.987183,62.5 L120.987183,52.5 C123.784829,52.5 126.062134,54.7436719 126.062134,57.5 C126.062134,60.2563281 123.784829,62.5 120.987183,62.5 L120.987183,62.5 Z" id="audio"></path>
                </g>
            </g>
        </g>
    </g>
</svg>