<?xml version="1.0" encoding="UTF-8" standalone="no"?>
<svg width="68px" height="40px" viewBox="0 0 68 40" version="1.1" xmlns="http://www.w3.org/2000/svg" xmlns:xlink="http://www.w3.org/1999/xlink">
    <!-- Generator: Sketch 3.6 (26304) - http://www.bohemiancoding.com/sketch -->
    <title>Teacher</title>
    <desc>Created with Sketch.</desc>
    <defs></defs>
    <g id="Page-1" stroke="none" stroke-width="1" fill="none" fill-rule="evenodd">
        <g id="HOME" transform="translate(-835.000000, -535.000000)" fill="#FF9F00">
            <g id="ROMPRE-L'ISOLEMENT" transform="translate(320.000000, 480.000000)">
                <g id="COACHING" transform="translate(438.000000, 30.000000)">
                    <path d="M140.912529,65 L115.761752,65 C115.123825,65 114.606379,64.4825545 114.606379,63.8446271 C114.606379,63.2066996 115.123825,62.6892541 115.761752,62.6892541 L140.912529,62.6892541 C142.361098,62.6892541 142.473919,61.4955777 142.473919,61.1299533 L142.473919,28.8714395 C142.473919,27.4925134 141.37426,27.3204959 140.899993,27.3107459 L109.128978,27.3107459 C107.749356,27.3107459 107.577338,28.4097082 107.567588,28.8825824 L107.567588,48.8254753 C107.567588,49.4634027 107.050143,49.9808482 106.412215,49.9808482 C105.774288,49.9808482 105.256842,49.4634027 105.256842,48.8254753 L105.256842,28.8714395 C105.256842,27.3156209 106.288251,25 109.128978,25 L140.912529,25 C142.467651,25 144.784665,26.0307124 144.784665,28.8714395 L144.784665,61.1292569 C144.784665,62.685772 143.753256,65 140.912529,65 Z M104.961557,64.9986071 C104.819486,64.9986071 104.676718,64.9714465 104.539522,64.9192144 C104.097291,64.7444112 103.806184,64.3188941 103.806184,63.8432342 C103.806184,58.4222439 100.100494,53.634306 94.7951111,52.201755 C94.3305941,52.0763981 93.9921304,51.6752559 93.9461662,51.1968104 C93.900202,50.7169719 94.1571836,50.2594192 94.589665,50.0490981 C96.9672679,48.8895466 98.4443903,46.5655686 98.4443903,43.9839125 C98.4443903,40.2413121 95.3543422,37.1965318 91.5574204,37.1965318 C87.7598022,37.1965318 84.6704506,40.2413121 84.6704506,43.9839125 C84.6704506,46.5655686 86.1482694,48.8895466 88.5265687,50.0490981 C88.9597465,50.2601156 89.2160318,50.7169719 89.170764,51.1968104 C89.1254962,51.6759524 88.7863361,52.0770945 88.3218191,52.201755 C83.0150428,53.634306 79.3100494,58.4222439 79.3100494,63.8432342 C79.3100494,64.4811616 78.7926039,64.9986071 78.1546765,64.9986071 C77.5167491,64.9986071 77,64.4811616 77,63.8432342 C77,58.1777979 80.3860297,53.0952713 85.4734313,50.7803468 C83.5129884,49.0817606 82.3610976,46.6352114 82.3610976,43.9832161 C82.3610976,38.9661536 86.4867331,34.8857859 91.5588133,34.8857859 C96.6301971,34.8857859 100.756529,38.9668501 100.756529,43.9832161 C100.756529,46.6352114 99.6053346,49.0803677 97.6448917,50.7803468 C101.916081,52.7240755 104.987325,56.61989 105.863431,61.1724354 L119.599763,46.3601226 C120.032941,45.891427 120.765583,45.8649627 121.232189,46.298837 C121.700188,46.7327112 121.728742,47.462567 121.294171,47.9305662 L105.808413,64.6288042 C105.585556,64.8690717 105.277039,64.9986071 104.961557,64.9986071 Z" id="Teacher"></path>
                </g>
            </g>
        </g>
    </g>
</svg>