<?xml version="1.0" encoding="UTF-8" standalone="no"?>
<svg width="40px" height="40px" viewBox="0 0 40 40" version="1.1" xmlns="http://www.w3.org/2000/svg" xmlns:xlink="http://www.w3.org/1999/xlink">
    <!-- Generator: Sketch 3.7.2 (28276) - http://www.bohemiancoding.com/sketch -->
    <title>Shape</title>
    <desc>Created with Sketch.</desc>
    <defs></defs>
    <g id="Page-1" stroke="none" stroke-width="1" fill="none" fill-rule="evenodd">
        <g id="L'ASSOCIATION" transform="translate(-948.000000, -739.000000)" fill="#44609F">
            <g id="RÉSEAUX-SOCIAUX" transform="translate(928.000000, 615.000000)">
                <path d="M40.0033063,124 C28.9567043,124 20,132.955224 20,144 C20,155.044776 28.9567043,164 40.0033063,164 C51.0499083,164 60.0066127,155.044776 60.0066127,144 C60.0066127,132.955224 51.0499083,124 40.0033063,124 L40.0033063,124 Z M44.7802153,144 L41.7946472,144 L41.7946472,154.746269 L37.316295,154.746269 L37.316295,144 L35.2263974,144 L35.2263974,140.119403 L37.316295,140.119403 L37.316295,138.029851 C37.316295,135.044776 38.5105223,133.253731 42.093204,133.253731 L45.0787721,133.253731 L45.0787721,136.835821 L43.2874313,136.835821 C41.7946472,136.835821 41.7946472,137.432836 41.7946472,138.328358 L41.7946472,140.119403 L45.0787721,140.119403 L44.7802153,144 L44.7802153,144 Z" id="Shape"></path>
            </g>
        </g>
    </g>
</svg>