<?xml version="1.0" encoding="UTF-8" standalone="no"?>
<svg width="51px" height="40px" viewBox="0 0 51 40" version="1.1" xmlns="http://www.w3.org/2000/svg" xmlns:xlink="http://www.w3.org/1999/xlink">
    <!-- Generator: Sketch 3.7.2 (28276) - http://www.bohemiancoding.com/sketch -->
    <title>Letter</title>
    <desc>Created with Sketch.</desc>
    <defs></defs>
    <g id="Page-1" stroke="none" stroke-width="1" fill="none" fill-rule="evenodd">
        <g id="MAIL-DE-NUIT" transform="translate(-135.000000, -151.000000)" fill="#FF9F00">
            <g id="ROMPRE-L'ISOLEMENT" transform="translate(40.000000, 116.000000)">
                <g id="MAIL-DE-NUIT">
                    <path d="M142.603834,35 L108.929712,35 C107.076677,35 105.607029,36.4696486 105.607029,38.3226837 L105.607029,39.4728435 L104.456869,39.4728435 C102.603834,39.4728435 101.134185,40.942492 101.134185,42.7955272 L101.134185,45.6070288 L98.3226837,45.6070288 C96.4696486,45.6070288 95,47.0766773 95,48.9297125 L95,71.6773163 C95,73.5303514 96.4696486,75 98.3226837,75 L131.996805,75 C133.84984,75 135.319489,73.5303514 135.319489,71.6773163 L135.319489,68.8658147 L138.13099,68.8658147 C139.984026,68.8658147 141.453674,67.3961661 141.453674,65.543131 L141.453674,64.3929712 L142.603834,64.3929712 C144.456869,64.3929712 145.926518,62.9233227 145.926518,61.0702875 L145.926518,38.3226837 C145.926518,36.4696486 144.456869,35 142.603834,35 L142.603834,35 Z M131.996805,47.2683706 C132.316294,47.2683706 132.635783,47.3961661 132.891374,47.5239617 L115.191693,60.6230032 L97.172524,47.715655 C97.4920128,47.4600639 97.8753994,47.2683706 98.3226837,47.2683706 L131.996805,47.2683706 L131.996805,47.2683706 Z M98.3226837,73.3386581 C98.1309904,73.3386581 98.0031949,73.2747604 97.8115016,73.2747604 L107.268371,62.4760383 L105.990415,61.3897764 L96.7252396,71.9968051 C96.7252396,71.8690096 96.6613419,71.8051118 96.6613419,71.6773163 L96.6613419,49.3769968 L115.191693,62.6677316 L133.658147,48.9936102 L133.658147,71.6773163 C133.658147,71.8051118 133.658147,71.9329073 133.594249,72.0607029 L124.329073,61.3897764 L123.051118,62.4760383 L132.444089,73.2108626 C132.316294,73.2747604 132.124601,73.2747604 131.932907,73.2747604 L98.3226837,73.2747604 L98.3226837,73.3386581 Z M139.792332,65.543131 C139.792332,66.4376997 139.025559,67.2044728 138.13099,67.2044728 L135.319489,67.2044728 L135.319489,48.9297125 C135.319489,47.0766773 133.84984,45.6070288 131.996805,45.6070288 L102.795527,45.6070288 L102.795527,42.7955272 C102.795527,41.9009585 103.5623,41.1341853 104.456869,41.1341853 L138.13099,41.1341853 C139.025559,41.1341853 139.792332,41.9009585 139.792332,42.7955272 L139.792332,65.543131 L139.792332,65.543131 Z M144.265176,61.0702875 C144.265176,61.9648562 143.498403,62.7316294 142.603834,62.7316294 L141.453674,62.7316294 L141.453674,42.7955272 C141.453674,40.942492 139.984026,39.4728435 138.13099,39.4728435 L107.268371,39.4728435 L107.268371,38.3226837 C107.268371,37.428115 108.035144,36.6613419 108.929712,36.6613419 L142.603834,36.6613419 C143.498403,36.6613419 144.265176,37.428115 144.265176,38.3226837 L144.265176,61.0702875 L144.265176,61.0702875 Z" id="Letter"></path>
                </g>
            </g>
        </g>
    </g>
</svg>