<?xml version="1.0" encoding="UTF-8" standalone="no"?>
<svg width="51px" height="40px" viewBox="0 0 51 40" version="1.1" xmlns="http://www.w3.org/2000/svg" xmlns:xlink="http://www.w3.org/1999/xlink">
    <!-- Generator: Sketch 3.6 (26304) - http://www.bohemiancoding.com/sketch -->
    <title>Letter</title>
    <desc>Created with Sketch.</desc>
    <defs></defs>
    <g id="Page-1" stroke="none" stroke-width="1" fill="none" fill-rule="evenodd">
        <g id="HOME" transform="translate(-399.000000, -535.000000)" fill="#FF9F00">
            <g id="ROMPRE-L'ISOLEMENT" transform="translate(320.000000, 480.000000)">
                <g id="MAIL-DE-NUIT" transform="translate(24.000000, 55.000000)">
                    <path d="M102.603834,3.55271368e-15 L68.9297125,3.55271368e-15 C67.0766773,3.55271368e-15 65.6070288,1.46964856 65.6070288,3.32268371 L65.6070288,4.47284345 L64.456869,4.47284345 C62.6038339,4.47284345 61.1341853,5.94249201 61.1341853,7.79552716 L61.1341853,10.6070288 L58.3226837,10.6070288 C56.4696486,10.6070288 55,12.0766773 55,13.9297125 L55,36.6773163 C55,38.5303514 56.4696486,40 58.3226837,40 L91.9968051,40 C93.8498403,40 95.3194888,38.5303514 95.3194888,36.6773163 L95.3194888,33.8658147 L98.1309904,33.8658147 C99.9840256,33.8658147 101.453674,32.3961661 101.453674,30.543131 L101.453674,29.3929712 L102.603834,29.3929712 C104.456869,29.3929712 105.926518,27.9233227 105.926518,26.0702875 L105.926518,3.32268371 C105.926518,1.46964856 104.456869,3.55271368e-15 102.603834,3.55271368e-15 L102.603834,3.55271368e-15 Z M91.9968051,12.2683706 C92.3162939,12.2683706 92.6357827,12.3961661 92.8913738,12.5239617 L75.1916933,25.6230032 L57.172524,12.715655 C57.4920128,12.4600639 57.8753994,12.2683706 58.3226837,12.2683706 L91.9968051,12.2683706 L91.9968051,12.2683706 Z M58.3226837,38.3386581 C58.1309904,38.3386581 58.0031949,38.2747604 57.8115016,38.2747604 L67.2683706,27.4760383 L65.9904153,26.3897764 L56.7252396,36.9968051 C56.7252396,36.8690096 56.6613419,36.8051118 56.6613419,36.6773163 L56.6613419,14.3769968 L75.1916933,27.6677316 L93.658147,13.9936102 L93.658147,36.6773163 C93.658147,36.8051118 93.658147,36.9329073 93.5942492,37.0607029 L84.3290735,26.3897764 L83.0511182,27.4760383 L92.4440895,38.2108626 C92.3162939,38.2747604 92.1246006,38.2747604 91.9329073,38.2747604 L58.3226837,38.2747604 L58.3226837,38.3386581 Z M99.7923323,30.543131 C99.7923323,31.4376997 99.0255591,32.2044728 98.1309904,32.2044728 L95.3194888,32.2044728 L95.3194888,13.9297125 C95.3194888,12.0766773 93.8498403,10.6070288 91.9968051,10.6070288 L62.7955272,10.6070288 L62.7955272,7.79552716 C62.7955272,6.90095847 63.5623003,6.1341853 64.456869,6.1341853 L98.1309904,6.1341853 C99.0255591,6.1341853 99.7923323,6.90095847 99.7923323,7.79552716 L99.7923323,30.543131 L99.7923323,30.543131 Z M104.265176,26.0702875 C104.265176,26.9648562 103.498403,27.7316294 102.603834,27.7316294 L101.453674,27.7316294 L101.453674,7.79552716 C101.453674,5.94249201 99.9840256,4.47284345 98.1309904,4.47284345 L67.2683706,4.47284345 L67.2683706,3.32268371 C67.2683706,2.42811502 68.0351438,1.66134185 68.9297125,1.66134185 L102.603834,1.66134185 C103.498403,1.66134185 104.265176,2.42811502 104.265176,3.32268371 L104.265176,26.0702875 L104.265176,26.0702875 Z" id="Letter"></path>
                </g>
            </g>
        </g>
    </g>
</svg>